<svg width="20" height="20" viewBox="0 0 20 20" fill="none" xmlns="http://www.w3.org/2000/svg">
<path d="M5.67309 0C5.31748 0 4.97623 0.14032 4.72348 0.390477L4.7202 0.393739C4.46857 0.646494 4.32731 0.988628 4.32731 1.34528C4.32731 1.70194 4.46857 2.04407 4.7202 2.29682L4.72122 2.29785L12.4227 9.99814L4.72146 17.7006C4.46876 17.9529 4.32667 18.2954 4.32645 18.6525C4.32624 19.0097 4.4679 19.3523 4.72029 19.605C4.97268 19.8577 5.31512 19.9998 5.67227 20C6.02942 20.0002 6.37227 19.8583 6.62497 19.6059L15.2806 10.9515C15.5323 10.6987 15.6735 10.3566 15.6735 9.99995C15.6735 9.64329 15.5323 9.30116 15.2806 9.0484L6.625 0.392746L6.62271 0.390477C6.36996 0.14032 6.02871 0 5.67309 0Z" fill="white"/>
</svg>
