<svg width="20" height="20" viewBox="0 0 20 20" fill="none" xmlns="http://www.w3.org/2000/svg">
<g clip-path="url(#clip0_686_54580)">
<path fill-rule="evenodd" clip-rule="evenodd" d="M1.49924 7.50002C1.49924 3.91602 4.41524 1.00002 7.99924 1.00002C11.5832 1.00002 14.4992 3.91602 14.4992 7.50002C14.4992 11.084 11.5832 14 7.99924 14C6.27591 13.9982 4.62368 13.3128 3.4051 12.0942C2.18651 10.8756 1.5011 9.22336 1.49924 7.50002ZM19.3682 19.162L13.4252 12.678C14.7616 11.286 15.5055 9.42965 15.5002 7.50002C15.5002 5.49702 14.7202 3.61302 13.3032 2.19702C12.6084 1.49852 11.7819 0.944702 10.8717 0.567597C9.96147 0.190492 8.9855 -0.00241784 8.00024 2.28734e-05C5.99724 2.28734e-05 4.11324 0.780023 2.69724 2.19702C1.99874 2.89188 1.44492 3.71833 1.06782 4.62856C0.690713 5.5388 0.497803 6.51477 0.500244 7.50002C0.500244 9.50302 1.28024 11.387 2.69724 12.803C3.3921 13.5015 4.21855 14.0553 5.12879 14.4324C6.03902 14.8096 7.01499 15.0025 8.00024 15C9.70522 15.005 11.3602 14.4243 12.6882 13.355L18.6312 19.838C18.6754 19.8869 18.7288 19.9265 18.7884 19.9545C18.8479 19.9826 18.9125 19.9985 18.9783 20.0014C19.044 20.0043 19.1097 19.994 19.1715 19.9713C19.2333 19.9486 19.29 19.9138 19.3382 19.869C19.4358 19.7793 19.4937 19.6546 19.4993 19.5222C19.5049 19.3899 19.4578 19.2597 19.3682 19.162Z" fill="white"/>
</g>
<defs>
<clipPath id="clip0_686_54580">
<rect width="20" height="20.0019" fill="white"/>
</clipPath>
</defs>
</svg>
